# xmcd
# 
# Track frame offsets:
#     182
#     18525
#     36500
#     50625
#     60550
#     74750
#     83587
#     93990
#     106942
#     119987
#     135975
#     150362
#     164800
#     174875
# 
# Disc length: 2503
# 
# Revision: 4
# Processed by: cddbd v1.5.2PL0 Copyright (c) Steve Scherf et al.
# Submitted via: BonkEnc v1.0
# 
DISCID=bf09c50e
DTITLE=Various Artist - Die schönsten Trompetenklänge zu Weihnachten 
DYEAR=0
DGENRE=
TTITLE0=Walter Scholz - Stille Nacht heilige Nacht
TTITLE1=Roy Etzel - Winter in den Bergen
TTITLE2=Felice Civitareale - Leise rieselt der Schnee
TTITLE3=Stephan Mross - Kling Glöcklein klingelingeling
TTITLE4=Louis and seine Trompete - Ihr Kinderlein kommet
TTITLE5=Joe Gut - Alle Jahre wieder
TTITLE6=Roy Martin - Oh du fröhliche
TTITLE7=Walter Scholz - Vom Himmel hoch da komm ich her
TTITLE8=Roy Etzel - Bald ist es Weihnacht
TTITLE9=Felice Civitareale - Oh Tannenbaum
TTITLE10=Joe Gut - Aba heitschi bumbeitschi
TTITLE11=Louis and seine Trompete - Süsser die Glocken nie klingen
TTITLE12=Roy Martin - Morgen kommt der Weihnachtsmann
TTITLE13=Orchester Edgar Pelz - Fröhliche Weihnacht
EXTD=
EXTT0=
EXTT1=
EXTT2=
EXTT3=
EXTT4=
EXTT5=
EXTT6=
EXTT7=
EXTT8=
EXTT9=
EXTT10=
EXTT11=
EXTT12=
EXTT13=
PLAYORDER=
